<svg xmlns="http://www.w3.org/2000/svg" viewBox="0 0 35.877 24.703">
  <path d="m 16.18 7.895 h -6.737 l -9.443 -7.895 h 26.034 c 5.342 0.308 8.302 3.195 8.88 8.661 c 0.035 0.765 0.035 2.155 0 4.17 c -0.178 3.113 -1.704 5.493 -4.58 7.139 c 0.153 0.149 2.001 1.726 5.543 4.733 h -6.737 l -4.184 -3.617 h -16.834 v 3.617 h -4.388 v -7.893 h 16.098 l -3.757 -3.22 h 6.704 l 3.784 3.22 c 2.658 -0.733 3.988 -2.274 3.988 -4.623 c 0.009 -0.884 0.009 -1.955 0 -3.213 c -0.374 -2.813 -1.83 -4.37 -4.371 -4.67 c -0.202 0.006 -4.981 0.006 -14.338 0 l 4.339 3.591 z" fill="#EBD393"/>
</svg>